<?xml version="1.0" encoding="UTF-8"?>
<!DOCTYPE svg PUBLIC "-//W3C//DTD SVG 1.1//EN" "http://www.w3.org/Graphics/SVG/1.1/DTD/svg11.dtd">
<svg xmlns="http://www.w3.org/2000/svg" version="1.1" width="450px" height="450px" style="shape-rendering:geometricPrecision; text-rendering:geometricPrecision; image-rendering:optimizeQuality; fill-rule:evenodd; clip-rule:evenodd" xmlns:xlink="http://www.w3.org/1999/xlink">
<g><path style="opacity:0.997" fill="#373738" d="M 235.5,253.5 C 237.248,252.211 237.581,250.711 236.5,249C 238,247.833 239.5,246.667 241,245.5C 241.333,246.167 241.667,246.833 242,247.5C 243.656,244.247 243.823,240.913 242.5,237.5C 241.269,238.651 241.269,239.817 242.5,241C 241.451,241.492 240.451,241.326 239.5,240.5C 238.081,234.815 236.747,228.815 235.5,222.5C 231.5,222.5 227.5,222.5 223.5,222.5C 223.57,226.425 222.903,230.091 221.5,233.5C 221.646,229.481 221.979,225.481 222.5,221.5C 227.214,221.173 231.88,221.507 236.5,222.5C 237.98,227.755 239.147,233.089 240,238.5C 239.931,230.849 239.764,223.182 239.5,215.5C 240.222,215.918 240.722,216.584 241,217.5C 241.333,217.167 241.667,216.833 242,216.5C 241.923,217.738 242.089,218.738 242.5,219.5C 243.298,217.922 243.798,216.256 244,214.5C 246.188,214.121 248.355,212.954 250.5,211C 248.854,209.445 248.521,207.779 249.5,206C 247.754,205.529 246.087,204.862 244.5,204C 246.846,202.987 248.513,201.321 249.5,199C 249.164,197.97 248.497,197.47 247.5,197.5C 252.683,191.142 255.85,183.809 257,175.5C 257.667,178.833 257.667,182.167 257,185.5C 255.734,191.323 253.734,196.657 251,201.5C 259.957,195.194 264.624,186.527 265,175.5C 267.325,184.707 265.491,193.04 259.5,200.5C 259.667,200.833 259.833,201.167 260,201.5C 270.158,191.879 273.325,180.212 269.5,166.5C 265.032,164.55 260.366,163.55 255.5,163.5C 255.323,170.134 254.823,170.134 254,163.5C 250.087,138.529 246.754,113.529 244,88.5C 244.837,90.3506 245.671,92.1839 246.5,94C 250.152,94.889 253.818,95.2224 257.5,95C 255.793,91.7515 253.96,88.5849 252,85.5C 251.667,86.8333 251.333,88.1667 251,89.5C 249.704,85.2332 247.204,81.8999 243.5,79.5C 242.9,81.5756 242.567,83.5756 242.5,85.5C 241.094,80.76 238.094,77.76 233.5,76.5C 231.698,75.5418 229.698,74.8751 227.5,74.5C 225.401,73.7691 223.401,73.7691 221.5,74.5C 222.106,76.7094 222.773,78.876 223.5,81C 221.486,78.4876 219.152,75.8209 216.5,73C 214.471,72.3189 212.471,71.9856 210.5,72C 212.201,74.6479 213.034,77.4812 213,80.5C 208.778,71.6434 202.278,69.4767 193.5,74C 200.39,74.0571 203.723,77.5571 203.5,84.5C 202.788,83.2613 201.788,82.7613 200.5,83C 201.603,84.6804 201.27,86.1804 199.5,87.5C 197.973,85.8067 196.64,83.9734 195.5,82C 191.529,81.9154 187.862,80.9154 184.5,79C 185.672,78.5814 186.672,77.9147 187.5,77C 186.551,76.3828 185.718,76.5494 185,77.5C 184.583,76.244 183.75,75.5774 182.5,75.5C 189.05,69.478 196.884,66.478 206,66.5C 222.825,66.999 238.658,71.1656 253.5,79C 258.706,84.9101 262.206,91.7435 264,99.5C 269.652,124.595 273.819,149.928 276.5,175.5C 276.793,191.76 269.793,203.593 255.5,211C 251.927,212.371 248.427,213.871 245,215.5C 245.273,224.489 245.273,233.489 245,242.5C 244.583,248.728 241.416,252.395 235.5,253.5 Z M 247.5,96.5 C 251.26,97.8783 254.926,99.545 258.5,101.5C 259.386,102.325 259.719,103.325 259.5,104.5C 256.15,104.665 252.817,104.498 249.5,104C 248.446,101.618 247.779,99.1178 247.5,96.5 Z M 249.5,106.5 C 253.145,107.987 256.812,109.487 260.5,111C 261.337,112.011 261.67,113.178 261.5,114.5C 257.865,113.886 254.198,113.552 250.5,113.5C 250.552,111.097 250.219,108.764 249.5,106.5 Z M 251.5,116.5 C 255.243,117.534 258.91,118.868 262.5,120.5C 263.386,121.325 263.719,122.325 263.5,123.5C 259.833,123.5 256.167,123.5 252.5,123.5C 252.326,121.139 251.993,118.806 251.5,116.5 Z M 252.5,126.5 C 252.56,125.957 252.893,125.624 253.5,125.5C 257.872,126.945 261.872,128.945 265.5,131.5C 261.555,132.491 257.555,132.824 253.5,132.5C 253.795,130.265 253.461,128.265 252.5,126.5 Z M 254.5,135.5 C 258.313,136.16 261.979,137.326 265.5,139C 266.337,140.011 266.67,141.178 266.5,142.5C 262.5,142.5 258.5,142.5 254.5,142.5C 254.5,140.167 254.5,137.833 254.5,135.5 Z M 255.5,144.5 C 259.55,145.628 263.55,146.961 267.5,148.5C 268.386,149.325 268.719,150.325 268.5,151.5C 264.167,151.5 259.833,151.5 255.5,151.5C 255.5,149.167 255.5,146.833 255.5,144.5 Z M 255.5,153.5 C 259.571,154.356 263.571,155.523 267.5,157C 268.973,157.71 269.64,158.876 269.5,160.5C 264.833,160.833 260.167,161.167 255.5,161.5C 255.5,158.833 255.5,156.167 255.5,153.5 Z"/></g>
<g><path style="opacity:0.575" fill="#1e1e20" d="M 227.5,74.5 C 229.698,74.8751 231.698,75.5418 233.5,76.5C 232.883,78.3208 232.716,80.3208 233,82.5C 231.404,79.6305 229.57,76.9639 227.5,74.5 Z"/></g>
<g><path style="opacity:0.727" fill="#343436" d="M 172.5,138.5 C 171.167,141.167 171.167,143.833 172.5,146.5C 172.336,149.187 172.503,151.854 173,154.5C 173.494,152.866 173.66,151.199 173.5,149.5C 174.117,149.611 174.617,149.944 175,150.5C 176.098,159.481 176.932,168.481 177.5,177.5C 179.347,180.607 179.68,183.94 178.5,187.5C 176.031,183.91 175.031,179.91 175.5,175.5C 176.371,170.194 176.371,169.861 175.5,174.5C 174.388,172.401 173.721,170.067 173.5,167.5C 171.784,167.629 170.117,167.962 168.5,168.5C 168.565,168.062 168.399,167.728 168,167.5C 165.347,170.517 163.847,170.017 163.5,166C 164.398,162.864 165.564,160.031 167,157.5C 165.89,159.037 164.39,159.703 162.5,159.5C 162.5,158.167 162.5,156.833 162.5,155.5C 164.6,153.502 166.6,151.335 168.5,149C 167.953,148.075 167.287,147.242 166.5,146.5C 165.264,147.246 163.93,147.579 162.5,147.5C 162.297,145.61 162.963,144.11 164.5,143C 164.272,142.601 163.938,142.435 163.5,142.5C 165.172,139.663 164.506,138.996 161.5,140.5C 158.619,137.144 158.952,134.144 162.5,131.5C 161.726,130.289 160.893,130.289 160,131.5C 159.654,129.782 159.154,128.115 158.5,126.5C 158.624,125.893 158.957,125.56 159.5,125.5C 160.239,125.369 160.906,125.536 161.5,126C 160.142,128.752 160.809,129.252 163.5,127.5C 164.938,127.719 166.271,128.219 167.5,129C 164.903,131.262 165.07,133.095 168,134.5C 168.309,133.234 168.809,132.067 169.5,131C 168.449,124.189 168.282,117.022 169,109.5C 171.263,119.259 172.429,128.925 172.5,138.5 Z"/></g>
<g><path style="opacity:1" fill="#313033" d="M 211.5,165.5 C 217.421,163.308 223.588,161.642 230,160.5C 233.174,161.728 236.341,161.561 239.5,160C 223.287,157.131 207.787,159.297 193,166.5C 191.941,166.37 191.108,165.87 190.5,165C 192.736,162.716 195.402,161.216 198.5,160.5C 204.167,156.656 210.334,153.656 217,151.5C 217.893,152.081 218.893,152.415 220,152.5C 225.59,152.023 231.09,151.189 236.5,150C 235.584,149.722 234.918,149.222 234.5,148.5C 237.206,148.575 239.873,148.908 242.5,149.5C 242.216,146.746 241.549,144.08 240.5,141.5C 231.19,142.296 221.857,143.129 212.5,144C 206.881,145.476 201.881,147.976 197.5,151.5C 196.508,151.328 195.842,151.662 195.5,152.5C 194.167,152.833 194.167,153.167 195.5,153.5C 195.158,154.338 194.492,154.672 193.5,154.5C 192.399,155.598 191.066,155.765 189.5,155C 196.605,149.112 204.605,144.779 213.5,142C 211.776,141.552 211.109,140.718 211.5,139.5C 210.167,140.833 208.833,140.833 207.5,139.5C 203.706,141.442 199.873,143.109 196,144.5C 195.329,143.748 194.496,143.414 193.5,143.5C 193.5,143.167 193.5,142.833 193.5,142.5C 194.492,142.672 195.158,142.338 195.5,141.5C 210.326,136.258 225.326,135.592 240.5,139.5C 240.5,137.167 240.5,134.833 240.5,132.5C 229.403,132.087 218.403,132.753 207.5,134.5C 207.611,133.883 207.944,133.383 208.5,133C 216.816,132.045 225.149,131.211 233.5,130.5C 232.624,129.749 231.624,129.249 230.5,129C 222.026,128.966 213.692,128.799 205.5,128.5C 209.611,127.292 213.945,126.625 218.5,126.5C 225.581,127.035 232.581,128.035 239.5,129.5C 239.682,127.409 239.348,125.409 238.5,123.5C 229.184,122.335 219.851,122.168 210.5,123C 204.881,124.476 199.881,126.976 195.5,130.5C 194.508,130.328 193.842,130.662 193.5,131.5C 192.167,131.833 192.167,132.167 193.5,132.5C 192.341,134.377 190.674,134.877 188.5,134C 199.305,123.211 212.305,119.045 227.5,121.5C 228.938,121.281 230.271,120.781 231.5,120C 224.756,118.343 218.089,117.509 211.5,117.5C 209.541,117.875 207.707,118.541 206,119.5C 204.665,118.92 203.498,118.587 202.5,118.5C 203.609,117.71 204.942,117.21 206.5,117C 217.323,115.682 227.823,116.849 238,120.5C 238.175,117.843 238.008,115.176 237.5,112.5C 227.494,112.334 217.494,112.5 207.5,113C 205.846,113.608 204.179,114.108 202.5,114.5C 203.347,113.034 204.68,112.2 206.5,112C 215.634,111.12 224.634,110.786 233.5,111C 230.21,110.275 227.21,109.108 224.5,107.5C 228.649,107.871 232.649,108.871 236.5,110.5C 236.949,107.956 236.949,105.29 236.5,102.5C 229.109,102.799 221.776,102.465 214.5,101.5C 207.489,101.504 201.156,103.504 195.5,107.5C 195.414,106.504 195.748,105.671 196.5,105C 202.904,100.854 209.738,99.687 217,101.5C 217.333,100.833 217.667,100.167 218,99.5C 221.992,101.27 226.159,101.77 230.5,101C 229.429,100.148 228.429,99.3149 227.5,98.5C 230.498,99.3416 233.498,99.8416 236.5,100C 235.565,97.6194 235.232,95.1194 235.5,92.5C 225.491,92.1559 215.491,91.9892 205.5,92C 202.106,93.0755 198.772,94.2422 195.5,95.5C 195.953,94.5416 196.619,93.7083 197.5,93C 201.153,92.2267 204.653,91.0601 208,89.5C 215.901,91.2052 223.734,91.5385 231.5,90.5C 232.5,90.5 233.5,90.5 234.5,90.5C 235.179,86.8998 236.013,87.2332 237,91.5C 243.122,116.478 246.122,141.811 246,167.5C 244.681,165.75 244.181,163.75 244.5,161.5C 233.406,162.114 222.406,163.448 211.5,165.5 Z M 205.5,128.5 C 202.123,128.959 198.789,129.626 195.5,130.5C 199.881,126.976 204.881,124.476 210.5,123C 219.851,122.168 229.184,122.335 238.5,123.5C 239.348,125.409 239.682,127.409 239.5,129.5C 232.581,128.035 225.581,127.035 218.5,126.5C 213.945,126.625 209.611,127.292 205.5,128.5 Z M 234.5,148.5 C 222.068,146.683 209.735,147.683 197.5,151.5C 201.881,147.976 206.881,145.476 212.5,144C 221.857,143.129 231.19,142.296 240.5,141.5C 241.549,144.08 242.216,146.746 242.5,149.5C 239.873,148.908 237.206,148.575 234.5,148.5 Z M 197.5,162.5 C 197.833,161.833 198.167,161.167 198.5,160.5C 212.687,153.946 227.52,151.279 243,152.5C 243.236,154.764 243.736,156.931 244.5,159C 228.572,156.256 212.905,157.422 197.5,162.5 Z"/></g>
<g><path style="opacity:0.792" fill="#28282a" d="M 163.5,142.5 C 163.938,142.435 164.272,142.601 164.5,143C 162.963,144.11 162.297,145.61 162.5,147.5C 163.93,147.579 165.264,147.246 166.5,146.5C 167.287,147.242 167.953,148.075 168.5,149C 166.6,151.335 164.6,153.502 162.5,155.5C 162.933,152.805 164.266,150.638 166.5,149C 164.953,148.667 163.62,149.167 162.5,150.5C 161.77,148.659 161.103,146.825 160.5,145C 161.373,143.955 162.373,143.122 163.5,142.5 Z"/></g>
<g><path style="opacity:1" fill="#3d3d40" d="M 182.5,75.5 C 183.75,75.5774 184.583,76.244 185,77.5C 185.718,76.5494 186.551,76.3828 187.5,77C 186.672,77.9147 185.672,78.5814 184.5,79C 187.862,80.9154 191.529,81.9154 195.5,82C 196.64,83.9734 197.973,85.8067 199.5,87.5C 201.27,86.1804 201.603,84.6804 200.5,83C 201.788,82.7613 202.788,83.2613 203.5,84.5C 213.233,85.0075 222.566,87.0075 231.5,90.5C 223.734,91.5385 215.901,91.2052 208,89.5C 204.653,91.0601 201.153,92.2267 197.5,93C 196.619,93.7083 195.953,94.5416 195.5,95.5C 194.426,96.8846 193.093,98.0513 191.5,99C 197.814,97.363 204.314,96.1964 211,95.5C 216.743,95.9105 222.243,96.9105 227.5,98.5C 228.429,99.3149 229.429,100.148 230.5,101C 226.159,101.77 221.992,101.27 218,99.5C 217.667,100.167 217.333,100.833 217,101.5C 209.738,99.687 202.904,100.854 196.5,105C 195.748,105.671 195.414,106.504 195.5,107.5C 194.317,108.504 192.984,109.338 191.5,110C 195.458,109.245 199.458,108.245 203.5,107C 210.58,106.205 217.58,106.372 224.5,107.5C 227.21,109.108 230.21,110.275 233.5,111C 224.634,110.786 215.634,111.12 206.5,112C 204.68,112.2 203.347,113.034 202.5,114.5C 199.564,116.308 196.564,118.141 193.5,120C 196.438,119.554 199.438,119.054 202.5,118.5C 203.498,118.587 204.665,118.92 206,119.5C 207.707,118.541 209.541,117.875 211.5,117.5C 218.089,117.509 224.756,118.343 231.5,120C 230.271,120.781 228.938,121.281 227.5,121.5C 212.305,119.045 199.305,123.211 188.5,134C 190.674,134.877 192.341,134.377 193.5,132.5C 193.5,132.167 193.5,131.833 193.5,131.5C 194.492,131.672 195.158,131.338 195.5,130.5C 198.789,129.626 202.123,128.959 205.5,128.5C 213.692,128.799 222.026,128.966 230.5,129C 231.624,129.249 232.624,129.749 233.5,130.5C 225.149,131.211 216.816,132.045 208.5,133C 207.944,133.383 207.611,133.883 207.5,134.5C 203.204,136.315 199.204,138.648 195.5,141.5C 194.508,141.328 193.842,141.662 193.5,142.5C 192.167,142.833 192.167,143.167 193.5,143.5C 194.496,143.414 195.329,143.748 196,144.5C 199.873,143.109 203.706,141.442 207.5,139.5C 208.833,140.833 210.167,140.833 211.5,139.5C 211.109,140.718 211.776,141.552 213.5,142C 204.605,144.779 196.605,149.112 189.5,155C 191.066,155.765 192.399,155.598 193.5,154.5C 194.492,154.672 195.158,154.338 195.5,153.5C 195.5,153.167 195.5,152.833 195.5,152.5C 196.492,152.672 197.158,152.338 197.5,151.5C 209.735,147.683 222.068,146.683 234.5,148.5C 234.918,149.222 235.584,149.722 236.5,150C 231.09,151.189 225.59,152.023 220,152.5C 218.893,152.415 217.893,152.081 217,151.5C 210.334,153.656 204.167,156.656 198.5,160.5C 195.402,161.216 192.736,162.716 190.5,165C 191.108,165.87 191.941,166.37 193,166.5C 207.787,159.297 223.287,157.131 239.5,160C 236.341,161.561 233.174,161.728 230,160.5C 223.588,161.642 217.421,163.308 211.5,165.5C 207.925,167.287 204.259,169.121 200.5,171C 199.304,171.654 199.304,172.154 200.5,172.5C 202.071,171.691 203.738,171.357 205.5,171.5C 207.067,172.681 207.901,174.347 208,176.5C 208.333,181.833 208.667,187.167 209,192.5C 210.867,190.192 211.867,187.525 212,184.5C 212.633,179.642 212.466,175.142 211.5,171C 212.448,170.517 213.448,170.351 214.5,170.5C 216.318,181.667 214.318,192.001 208.5,201.5C 207.294,204.298 205.294,206.465 202.5,208C 205.275,207.626 207.942,206.626 210.5,205C 212.703,202.628 215.037,200.461 217.5,198.5C 220.602,196.344 222.768,193.344 224,189.5C 224.167,190.167 224.333,190.833 224.5,191.5C 221.879,196.407 219.545,201.407 217.5,206.5C 221.886,205.634 225.386,203.301 228,199.5C 228.384,201.197 228.218,202.863 227.5,204.5C 227.5,205.167 227.833,205.5 228.5,205.5C 231.162,204.263 233.829,203.429 236.5,203C 235.643,203.689 234.977,204.522 234.5,205.5C 236.044,206.747 237.544,208.08 239,209.5C 239.442,207.321 240.442,206.655 242,207.5C 243.914,206.324 243.748,205.324 241.5,204.5C 244.266,202.741 246.266,200.407 247.5,197.5C 248.497,197.47 249.164,197.97 249.5,199C 248.513,201.321 246.846,202.987 244.5,204C 246.087,204.862 247.754,205.529 249.5,206C 248.521,207.779 248.854,209.445 250.5,211C 248.355,212.954 246.188,214.121 244,214.5C 243.798,216.256 243.298,217.922 242.5,219.5C 242.089,218.738 241.923,217.738 242,216.5C 241.667,216.833 241.333,217.167 241,217.5C 240.722,216.584 240.222,215.918 239.5,215.5C 232.913,213.539 225.913,212.872 218.5,213.5C 219.166,221.814 219.666,230.147 220,238.5C 220.198,236.618 220.698,234.952 221.5,233.5C 222.871,237.957 221.871,242.291 218.5,246.5C 217.635,247.583 216.635,247.749 215.5,247C 216.771,244.423 216.771,241.923 215.5,239.5C 212.914,241.043 210.414,242.709 208,244.5C 206.32,243.397 204.82,243.73 203.5,245.5C 202.741,248.157 202.074,250.823 201.5,253.5C 202.321,257.082 203.321,257.248 204.5,254C 203.483,252.951 203.316,251.784 204,250.5C 204.84,253.464 205.84,253.797 207,251.5C 208.667,252.833 210.333,252.833 212,251.5C 213.031,252.7 213.865,254.034 214.5,255.5C 214.457,256.416 214.124,257.083 213.5,257.5C 213.5,256.5 213.5,255.5 213.5,254.5C 211.833,254.5 210.167,254.5 208.5,254.5C 205.75,260.836 203.417,267.336 201.5,274C 201.726,277.954 203.393,281.121 206.5,283.5C 205.504,283.414 204.671,283.748 204,284.5C 203.333,283.833 202.667,283.167 202,282.5C 201.554,284.795 201.388,287.129 201.5,289.5C 193.502,283.671 191.002,276.005 194,266.5C 196.911,261.178 199.411,255.678 201.5,250C 197.546,247.422 194.046,244.256 191,240.5C 188.682,234.534 189.182,228.867 192.5,223.5C 191.833,221.5 191.167,219.5 190.5,217.5C 180.722,216.044 174.222,210.71 171,201.5C 170.011,198.544 169.178,195.544 168.5,192.5C 168.848,190.303 169.848,188.47 171.5,187C 170.167,187 168.833,187 167.5,187C 165.987,183.571 166.653,180.571 169.5,178C 168.451,177.508 167.451,177.674 166.5,178.5C 165.544,177.135 164.878,175.635 164.5,174C 165.65,172.019 166.984,170.186 168.5,168.5C 170.117,167.962 171.784,167.629 173.5,167.5C 173.721,170.067 174.388,172.401 175.5,174.5C 175.5,174.833 175.5,175.167 175.5,175.5C 175.031,179.91 176.031,183.91 178.5,187.5C 179.68,183.94 179.347,180.607 177.5,177.5C 176.932,168.481 176.098,159.481 175,150.5C 174.617,149.944 174.117,149.611 173.5,149.5C 173.737,148.209 173.404,147.209 172.5,146.5C 172.5,143.833 172.5,141.167 172.5,138.5C 172.429,128.925 171.263,119.259 169,109.5C 168.282,117.022 168.449,124.189 169.5,131C 168.809,132.067 168.309,133.234 168,134.5C 165.07,133.095 164.903,131.262 167.5,129C 166.271,128.219 164.938,127.719 163.5,127.5C 160.809,129.252 160.142,128.752 161.5,126C 160.906,125.536 160.239,125.369 159.5,125.5C 160.048,123.606 161.048,121.94 162.5,120.5C 162.333,120.167 162.167,119.833 162,119.5C 161.311,120.357 160.478,121.023 159.5,121.5C 156.487,107.542 159.987,95.5421 170,85.5C 173.589,81.3083 177.756,77.9749 182.5,75.5 Z M 181.5,136.5 C 181.833,136.5 182.167,136.5 182.5,136.5C 182.833,141.833 183.167,147.167 183.5,152.5C 182.656,149.655 181.99,146.655 181.5,143.5C 181.5,141.167 181.5,138.833 181.5,136.5 Z M 206.5,224.5 C 214.414,230.236 214.414,236.236 206.5,242.5C 206.167,242.333 205.833,242.167 205.5,242C 210.433,236.435 210.766,230.602 206.5,224.5 Z"/></g>
<g><path style="opacity:0.845" fill="#2d2d2e" d="M 188.5,100.5 C 188.833,101.833 189.167,101.833 189.5,100.5C 189.833,100.5 190.167,100.5 190.5,100.5C 190.586,101.496 190.252,102.329 189.5,103C 186.315,104.407 183.315,105.907 180.5,107.5C 181.314,117.156 181.98,126.823 182.5,136.5C 182.167,136.5 181.833,136.5 181.5,136.5C 181.5,138.833 181.5,141.167 181.5,143.5C 179.474,133.493 177.808,123.326 176.5,113C 177.3,108.92 177.8,104.753 178,100.5C 178.471,102.246 179.138,103.913 180,105.5C 182.971,103.936 185.804,102.27 188.5,100.5 Z"/></g>
<g><path style="opacity:0.847" fill="#2b2b2d" d="M 208.5,201.5 C 214.318,192.001 216.318,181.667 214.5,170.5C 213.448,170.351 212.448,170.517 211.5,171C 212.466,175.142 212.633,179.642 212,184.5C 211.867,187.525 210.867,190.192 209,192.5C 208.667,187.167 208.333,181.833 208,176.5C 207.901,174.347 207.067,172.681 205.5,171.5C 206.209,170.596 207.209,170.263 208.5,170.5C 209.008,174.891 209.842,179.225 211,183.5C 211.461,178.816 211.295,174.149 210.5,169.5C 212.467,169.261 214.301,169.594 216,170.5C 216.991,178.651 216.324,186.651 214,194.5C 213.065,197.595 211.231,199.929 208.5,201.5 Z"/></g>
<g><path style="opacity:0.951" fill="#333335" d="M 247.5,197.5 C 246.266,200.407 244.266,202.741 241.5,204.5C 243.748,205.324 243.914,206.324 242,207.5C 240.442,206.655 239.442,207.321 239,209.5C 237.544,208.08 236.044,206.747 234.5,205.5C 234.977,204.522 235.643,203.689 236.5,203C 233.829,203.429 231.162,204.263 228.5,205.5C 228.5,205.167 228.5,204.833 228.5,204.5C 229.167,204.5 229.5,204.167 229.5,203.5C 235.095,201.073 239.262,197.073 242,191.5C 244.442,186.067 246.108,180.4 247,174.5C 248.661,185.527 245.828,195.194 238.5,203.5C 238.667,203.833 238.833,204.167 239,204.5C 241.998,202.332 244.831,199.999 247.5,197.5 Z"/></g>
<g><path style="opacity:1" fill="#2d2d2e" d="M 229.5,203.5 C 228.833,203.5 228.5,203.833 228.5,204.5C 228.167,204.5 227.833,204.5 227.5,204.5C 228.218,202.863 228.384,201.197 228,199.5C 225.386,203.301 221.886,205.634 217.5,206.5C 219.545,201.407 221.879,196.407 224.5,191.5C 224.333,190.833 224.167,190.167 224,189.5C 222.768,193.344 220.602,196.344 217.5,198.5C 223.134,190.768 226.3,182.102 227,172.5C 229.02,183.928 226.52,194.428 219.5,204C 227.338,199.926 232.504,193.426 235,184.5C 235.945,180.886 236.612,177.219 237,173.5C 238.569,184.558 236.069,194.558 229.5,203.5 Z"/></g>
<g><path style="opacity:1" fill="#404041" d="M 235.5,253.5 C 235.333,270.17 235.5,286.837 236,303.5C 237.376,304.705 238.542,306.038 239.5,307.5C 239.389,308.117 239.056,308.617 238.5,309C 243.179,311.047 243.679,313.88 240,317.5C 238.981,316.313 237.814,315.313 236.5,314.5C 235.893,314.624 235.56,314.957 235.5,315.5C 235.5,325.5 235.5,335.5 235.5,345.5C 238.833,345.5 242.167,345.5 245.5,345.5C 246.162,341.534 246.495,337.534 246.5,333.5C 246.33,332.178 246.663,331.011 247.5,330C 245.622,327.195 243.955,324.528 242.5,322C 243.047,321.075 243.713,320.242 244.5,319.5C 246.121,321.153 247.288,323.153 248,325.5C 248.333,324.833 248.667,324.167 249,323.5C 250.748,325.401 252.248,327.401 253.5,329.5C 254.811,335 254.811,340.5 253.5,346C 265.076,348.061 276.409,351.061 287.5,355C 305.1,362.177 309.6,374.343 301,391.5C 294.496,397.168 286.996,400.835 278.5,402.5C 268.094,404.782 257.761,406.782 247.5,408.5C 217.525,412.473 188.191,409.307 159.5,399C 145.464,393.422 140.63,383.256 145,368.5C 148.947,362.23 154.447,357.73 161.5,355C 177.291,349.075 193.625,345.908 210.5,345.5C 211.329,349.486 212.163,353.486 213,357.5C 213.667,337.5 213.667,317.5 213,297.5C 208.838,295.181 205.005,292.514 201.5,289.5C 201.388,287.129 201.554,284.795 202,282.5C 202.667,283.167 203.333,283.833 204,284.5C 204.671,283.748 205.504,283.414 206.5,283.5C 208.764,284.581 210.931,285.915 213,287.5C 213.5,277.506 213.666,267.506 213.5,257.5C 214.124,257.083 214.457,256.416 214.5,255.5C 213.865,254.034 213.031,252.7 212,251.5C 210.333,252.833 208.667,252.833 207,251.5C 205.84,253.797 204.84,253.464 204,250.5C 203.316,251.784 203.483,252.951 204.5,254C 203.321,257.248 202.321,257.082 201.5,253.5C 202.074,250.823 202.741,248.157 203.5,245.5C 204.82,243.73 206.32,243.397 208,244.5C 210.414,242.709 212.914,241.043 215.5,239.5C 216.771,241.923 216.771,244.423 215.5,247C 216.635,247.749 217.635,247.583 218.5,246.5C 221.871,242.291 222.871,237.957 221.5,233.5C 222.903,230.091 223.57,226.425 223.5,222.5C 227.5,222.5 231.5,222.5 235.5,222.5C 236.747,228.815 238.081,234.815 239.5,240.5C 240.451,241.326 241.451,241.492 242.5,241C 241.269,239.817 241.269,238.651 242.5,237.5C 243.823,240.913 243.656,244.247 242,247.5C 241.667,246.833 241.333,246.167 241,245.5C 239.5,246.667 238,247.833 236.5,249C 237.581,250.711 237.248,252.211 235.5,253.5 Z M 226.5,370.5 C 227.087,328.502 227.587,286.502 228,244.5C 228.667,285.833 228.667,327.167 228,368.5C 227.722,369.416 227.222,370.082 226.5,370.5 Z M 273.5,392.5 C 271.221,393.651 268.888,394.651 266.5,395.5C 241.527,400.514 216.527,400.681 191.5,396C 193.134,395.506 194.801,395.34 196.5,395.5C 197.167,395.5 197.833,395.5 198.5,395.5C 223.483,398.096 248.483,397.096 273.5,392.5 Z M 273.5,392.5 C 275.225,391.095 277.225,390.595 279.5,391C 277.655,392.128 275.655,392.628 273.5,392.5 Z"/></g>
<g><path style="opacity:0.212" fill="#2f2f31" d="M 226.5,370.5 C 224.515,350.074 224.515,329.907 226.5,310C 225.826,308.249 225.493,306.583 225.5,305C 226.162,280.566 226.829,256.066 227.5,231.5C 228.812,234.237 229.812,237.071 230.5,240C 229.756,283.313 229.756,326.48 230.5,369.5C 229.653,370.845 228.487,371.845 227,372.5C 226.536,371.906 226.369,371.239 226.5,370.5 Z M 226.5,370.5 C 227.222,370.082 227.722,369.416 228,368.5C 228.667,327.167 228.667,285.833 228,244.5C 227.587,286.502 227.087,328.502 226.5,370.5 Z"/></g>
<g><path style="opacity:1" fill="#333335" d="M 239.5,307.5 C 246.69,313.21 251.357,320.543 253.5,329.5C 252.248,327.401 250.748,325.401 249,323.5C 248.667,324.167 248.333,324.833 248,325.5C 247.288,323.153 246.121,321.153 244.5,319.5C 243.713,320.242 243.047,321.075 242.5,322C 243.955,324.528 245.622,327.195 247.5,330C 246.663,331.011 246.33,332.178 246.5,333.5C 244.37,326.575 240.703,320.575 235.5,315.5C 235.56,314.957 235.893,314.624 236.5,314.5C 237.814,315.313 238.981,316.313 240,317.5C 243.679,313.88 243.179,311.047 238.5,309C 239.056,308.617 239.389,308.117 239.5,307.5 Z"/></g>
<g><path style="opacity:0.788" fill="#262628" d="M 266.5,395.5 C 268.888,394.651 271.221,393.651 273.5,392.5C 248.483,397.096 223.483,398.096 198.5,395.5C 227.065,397.326 255.399,394.993 283.5,388.5C 286.984,385.59 290.984,384.09 295.5,384C 295.833,384.333 296.167,384.667 296.5,385C 287.231,390.462 277.231,393.962 266.5,395.5 Z M 273.5,392.5 C 275.655,392.628 277.655,392.128 279.5,391C 277.225,390.595 275.225,391.095 273.5,392.5 Z"/></g>
<g><path style="opacity:0.376" fill="#242426" d="M 188.5,394.5 C 186.523,395.507 186.857,395.507 189.5,394.5C 192.059,394.198 194.393,394.532 196.5,395.5C 194.801,395.34 193.134,395.506 191.5,396C 216.527,400.681 241.527,400.514 266.5,395.5C 236.919,402.395 207.253,402.062 177.5,394.5C 176.09,394.132 175.09,393.299 174.5,392C 179.395,391.959 184.062,392.792 188.5,394.5 Z"/></g>
<g><path style="opacity:0.733" fill="#272729" d="M 278.5,402.5 C 268.628,406.274 258.295,408.274 247.5,408.5C 257.761,406.782 268.094,404.782 278.5,402.5 Z"/></g>
</svg>
